<svg width="36" height="36" viewBox="0 0 36 36" fill="none" xmlns="http://www.w3.org/2000/svg">
<path d="M35.9972 17.9987C35.9972 8.05831 27.939 0 17.9987 0C8.05834 0 0 8.05831 0 17.9987C0 26.9823 6.58185 34.4283 15.1863 35.7786V23.2014H10.6164V17.9987H15.1863V14.0333C15.1863 9.52235 17.8734 7.03069 21.9846 7.03069C23.9538 7.03069 26.0136 7.38229 26.0136 7.38229V11.8116H23.7441C21.5082 11.8116 20.8108 13.199 20.8108 14.6223V17.9987H25.8027L25.0047 23.2014H20.8108V35.7786C29.4154 34.4283 35.9971 26.9823 35.9971 17.9986L35.9972 17.9987Z" fill="#1877F2"/>
</svg>
