<svg width="36" height="36" viewBox="0 0 36 36" fill="none" xmlns="http://www.w3.org/2000/svg">
<path d="M2.98145 10.2586C4.07129 7.98751 5.61113 6.06798 7.55176 4.47188C10.1814 2.29923 13.1979 0.991415 16.5799 0.590634C20.5525 0.11954 24.2861 0.871884 27.7385 2.93907C28.5963 3.45235 29.3979 4.03595 30.1643 4.66876C30.3541 4.82345 30.333 4.91485 30.1713 5.06954C28.6033 6.63048 27.0354 8.19142 25.4814 9.76642C25.2986 9.94923 25.2002 9.93517 25.0033 9.78751C20.4471 6.27892 13.8025 7.22813 10.4064 11.8688C9.80879 12.6844 9.32363 13.5633 8.98613 14.5195C8.95801 14.6039 8.90176 14.6813 8.85957 14.7656C7.95254 14.0766 7.03848 13.3875 6.13848 12.6914C5.08379 11.8828 4.0291 11.0742 2.98145 10.2586Z" fill="#E94335"/>
<path d="M8.85928 21.3609C9.16162 22.0289 9.41475 22.725 9.79443 23.3508C11.3905 25.9664 13.6687 27.6469 16.671 28.2445C19.378 28.7859 21.9796 28.4203 24.4054 27.0633C24.4897 27.0211 24.5741 26.9789 24.6515 26.9367C24.6937 26.9789 24.7288 27.0281 24.771 27.0633C26.5851 28.4695 28.4062 29.8758 30.2202 31.282C29.3483 32.1469 28.3569 32.843 27.3022 33.4476C24.2437 35.1914 20.9319 35.8945 17.4444 35.6273C13.0991 35.2898 9.35147 33.5742 6.25772 30.4805C4.90068 29.1234 3.78271 27.5906 2.97412 25.8398C3.72646 25.2633 4.47881 24.6937 5.23115 24.1172C6.44053 23.1961 7.6499 22.282 8.85928 21.3609Z" fill="#34A853"/>
<path d="M30.2275 31.2821C28.4135 29.8758 26.5924 28.4696 24.7783 27.0633C24.7361 27.0281 24.6939 26.9789 24.6588 26.9367C25.2845 26.4516 25.9244 25.9805 26.4377 25.3617C27.2955 24.3352 27.865 23.175 28.1603 21.8742C28.1955 21.7125 28.1674 21.6563 28.0056 21.6633C27.9213 21.6703 27.8439 21.6633 27.7595 21.6633C24.8908 21.6633 22.015 21.6563 19.1463 21.6703C18.8299 21.6703 18.7595 21.586 18.7666 21.2836C18.7806 19.2445 18.7806 17.2055 18.7666 15.1664C18.7666 14.9063 18.8369 14.836 19.097 14.836C24.3564 14.843 29.6158 14.843 34.8822 14.836C35.1072 14.836 35.1986 14.8922 35.2549 15.1313C35.6838 17.0649 35.6556 19.0055 35.3955 20.9602C35.1845 22.5211 34.8049 24.0328 34.2213 25.4953C33.3564 27.6539 32.0838 29.5383 30.4103 31.1555C30.347 31.2047 30.2838 31.2399 30.2275 31.2821Z" fill="#4285F3"/>
<path d="M8.8595 21.361C7.65013 22.282 6.44075 23.1961 5.23138 24.1172C4.47903 24.6867 3.72669 25.2633 2.97435 25.8399C2.39075 24.757 2.01107 23.611 1.70169 22.4297C1.11107 20.1445 1.01966 17.8242 1.3431 15.4969C1.59622 13.6688 2.12357 11.911 2.97435 10.2656C4.02903 11.0742 5.07669 11.8899 6.13138 12.6985C7.03841 13.3945 7.94544 14.0836 8.85247 14.7727C8.69778 15.525 8.47982 16.2633 8.4095 17.0367C8.28294 18.443 8.41653 19.8141 8.81732 21.1641C8.84544 21.2203 8.85247 21.2906 8.8595 21.361Z" fill="#FABB06"/>
</svg>
