<svg width="99" height="127" viewBox="0 0 99 127" fill="none" xmlns="http://www.w3.org/2000/svg">
<path id="Vector" d="M66.2136 99.663C65.2471 100.63 64.039 101.499 62.5892 102.273C61.1395 103.046 59.8347 103.626 58.6749 104.012C55.1955 105.172 51.7645 105.22 48.3818 104.157C44.999 103.094 42.1479 101.596 39.8283 99.663C39.4417 99.2764 39.2967 98.8898 39.3934 98.5032C39.49 98.1166 39.7317 97.8267 40.1183 97.6334C43.7909 96.4736 46.6904 94.6373 48.8167 92.1244C50.943 89.6115 52.3927 86.9053 53.1659 84.0058C53.7458 81.2997 53.6492 78.6901 52.876 76.1772C52.1028 73.6644 51.5229 71.0548 51.1363 68.3486C50.7497 66.2224 50.6047 64.1444 50.7014 62.1148C50.798 60.0851 51.2329 58.1038 52.0061 56.1708C52.0061 55.7842 52.1994 55.5909 52.586 55.5909C52.9726 55.5909 53.2626 55.6876 53.4559 55.8809C54.6157 58.3938 56.1137 60.6167 57.9501 62.5497C59.7864 64.4827 61.7194 66.319 63.749 68.0587C65.7786 69.7984 67.615 71.6831 69.258 73.7127C70.9011 75.7423 71.9159 78.1102 72.3025 80.8164C72.4958 81.9762 72.5924 83.0393 72.5924 84.0058C72.7857 86.9053 72.3025 89.8048 71.1427 92.7043C69.9829 95.6038 68.3399 97.9233 66.2136 99.663ZM83.6105 50.0819C81.2909 47.9556 78.8746 46.0227 76.3617 44.283C73.8489 42.5433 71.4326 40.5136 69.1131 38.1941C64.4739 33.5549 61.4294 28.1425 59.9797 21.957C58.5299 15.7714 58.7716 9.48921 60.7046 3.11035C61.0912 2.14386 60.9462 1.32234 60.2696 0.645793C59.5931 -0.0307521 58.7716 -0.175726 57.8051 0.210871C55.4855 1.17736 53.3109 2.33716 51.2812 3.69025C49.2516 5.04334 47.2703 6.39643 45.3373 7.74952C39.3451 12.7753 34.6092 18.7192 31.1299 25.5813C27.6505 32.4434 25.6692 39.7888 25.1859 47.6174C24.7027 55.446 25.9108 63.1296 28.8103 70.6682C28.8103 71.0548 28.8586 71.4414 28.9553 71.828C29.0519 72.2146 29.1002 72.6012 29.1002 72.9878C29.1002 74.7275 28.327 75.9839 26.7806 76.7571C25.2343 77.5303 23.6879 77.2404 22.1415 75.8873C21.7549 75.3074 21.4649 74.8242 21.2716 74.4376C18.1789 70.5716 16.1009 66.174 15.0378 61.2449C13.9746 56.3158 13.8296 51.435 14.6028 46.6025C14.7961 45.4428 14.3612 44.5729 13.2981 43.993C12.2349 43.4131 11.3168 43.6064 10.5436 44.5729C6.67759 49.5987 3.87476 55.156 2.13507 61.2449C0.395384 67.3338 -0.281162 73.4711 0.105436 79.6566C0.105436 81.3963 0.25041 83.1843 0.540358 85.0207C0.830306 86.857 1.26523 88.645 1.84512 90.3847C3.19821 95.0239 5.03455 99.2764 7.35414 103.142C11.0268 109.328 15.9559 114.499 22.1415 118.655C28.327 122.811 34.9958 125.372 42.1479 126.338C49.6865 127.305 57.2735 126.918 64.9088 125.178C72.5441 123.439 79.2612 119.959 85.0602 114.74C89.3128 110.681 92.6472 105.994 95.0634 100.678C97.4796 95.3621 98.7844 89.8048 98.9777 84.0058C99.171 78.2069 98.1078 72.6012 95.7883 67.1889C95.595 66.8023 95.45 66.464 95.3533 66.174C95.2567 65.8841 95.1117 65.5458 94.9184 65.1592C93.1787 61.8731 91.2458 58.877 89.1195 56.1708C88.3463 55.011 87.5247 53.9479 86.6549 52.9814C85.7851 52.0149 84.7702 51.0484 83.6105 50.0819Z" fill="#9DF028" fill-opacity="0.9"/>
</svg>
